<?xml version="1.0" encoding="utf-8"?>
<!-- Generator: Adobe Illustrator 21.0.2, SVG Export Plug-In . SVG Version: 6.00 Build 0)  -->
<!DOCTYPE svg PUBLIC "-//W3C//DTD SVG 1.1//EN" "http://www.w3.org/Graphics/SVG/1.1/DTD/svg11.dtd">
<svg version="1.1" id="Layer_1" xmlns="http://www.w3.org/2000/svg" xmlns:xlink="http://www.w3.org/1999/xlink" x="0px" y="0px"
	 width="982px" height="220.2px" viewBox="0 0 982 220.2" style="enable-background:new 0 0 982 220.2;" xml:space="preserve">
<style type="text/css">
	.st0{fill:#47E2DE;}
	.st1{fill:#FFFFFF;}
	.st2{fill:#3D9243;}
	.st3{fill:#BE1E68;}
	.st4{fill:#D3226A;}
	.st5{fill:none;stroke:#8A1B50;stroke-miterlimit:10;}
	.st6{fill:#83C341;}
	.st7{fill:#6B3316;}
	.st8{fill:#010101;}
	.st9{fill:#3A2E7C;}
	.st10{fill:#856EB1;}
	.st11{fill:#DD4194;}
	.st12{fill:#71CCF3;}
	.st13{fill:#E298C2;}
	.st14{fill:#DB7928;}
	.st15{fill:#9E5424;}
	.st16{fill:#F8974A;}
	.st17{fill:#FDCD0F;}
	.st18{fill:#995124;}
	.st19{fill:#E3BC70;}
	.st20{fill:#C89336;}
	.st21{fill:#F69121;}
	.st22{fill:#007DD1;}
	.st23{fill:#1F4C9D;}
	.st24{fill:#F06344;}
	.st25{fill:#2B3D3C;}
	.st26{fill:#405655;}
	.st27{fill:#587676;}
	.st28{fill:#FFAA00;}
	.st29{fill:#FFC200;}
	.st30{fill:#A95B26;}
	.st31{fill:#CB7128;}
	.st32{fill:#BAE1DD;}
	.st33{fill:#C0D0CF;}
	.st34{fill:#F1F9F9;}
	.st35{fill:#91A8A6;}
	.st36{fill:#567575;}
	.st37{fill:#8EA4A5;}
	.st38{opacity:0.6;fill:#FFFFFF;enable-background:new    ;}
	.st39{fill:#F89200;}
	.st40{fill:#FFE783;}
	.st41{fill:#E8CE60;}
	.st42{fill:#836CB3;}
	.st43{fill:#EF5425;}
	.st44{fill:#8AC1BA;}
	.st45{fill:#D54327;}
	.st46{fill:#9FBABB;}
	.st47{fill:#689B9B;}
	.st48{fill:#D08D2A;}
	.st49{fill:#E0E2E2;}
	.st50{fill:#FFEA55;}
	.st51{fill:#D3BD5E;}
	.st52{fill:#BAA447;}
	.st53{fill:#8758A3;}
	.st54{fill:#A585BC;}
	.st55{fill:#CCB5D7;}
	.st56{fill:#F3E79F;}
	.st57{fill:#A1B35A;}
	.st58{fill:#785C25;}
	.st59{fill:#FCD305;}
	.st60{fill:#C68A06;}
	.st61{fill:#00A3F4;}
	.st62{fill:#939292;}
	.st63{fill:#D5962A;}
	.st64{fill:#B93A27;}
	.st65{fill:#221F1F;}
	.st66{opacity:0.75;fill:#FFFFFF;enable-background:new    ;}
	.st67{fill:#965017;}
	.st68{fill:#BA6F2A;}
	.st69{fill:#342214;}
	.st70{fill:none;stroke:#7F481E;stroke-linecap:round;stroke-miterlimit:10;}
	.st71{fill:#BC6E0F;}
	.st72{fill:#F49AB8;}
	.st73{fill:#351F09;}
	.st74{fill:#3EB500;}
	.st75{fill:#F49211;}
	.st76{fill:#606060;}
	.st77{fill:#EB2572;}
	.st78{fill:#A1CACB;}
	.st79{fill:#45C6F0;}
	.st80{fill:#EAE51E;}
	.st81{fill:#98C93E;}
	.st82{fill:#8DA3A4;}
	.st83{fill:#EB2427;}
</style>
<g>
	<rect y="18.8" class="st0" width="981.8" height="201.4"/>
	<g>
		<ellipse class="st1" cx="852.8" cy="74.1" rx="108.3" ry="15.9"/>
		<polygon class="st2" points="736.2,107 752.1,144.7 788.2,69.5 810.8,102.9 829.7,46.7 869.7,87.9 885.4,10.9 935.9,56.3 
			951.8,3.7 982,40.8 982,217.6 694.8,217.6 		"/>
		<path class="st1" d="M0,38.8c35.5,0,64.3-4.2,64.3-9.5C64.3,24.2,35.4,20,0,20V38.8z"/>
		<g>
			<path class="st3" d="M0.2,85.7C14.5,71.9,63.7,1.3,63.7,1.3c16.5,43,91.5,154.2,91.5,154.2c8,34.3-79.9,62.1-155.2,47.3L0.2,85.7
				z"/>
			<g>
				<path class="st1" d="M63.7,0c2.1,5.5,5.1,12.4,7.9,18.1l-20.5-0.2C58.2,8,63.7,0,63.7,0z"/>
			</g>
			<polygon class="st4" points="302.5,211.2 296,175.5 258.5,173 238.8,99.2 152.3,70.3 136.1,91.3 81.8,82.5 52.5,120.5 0.2,102.7 
				0.2,211.5 			"/>
			<polyline class="st5" points="184.8,81.4 169.9,133.7 157.6,131.9 145.4,172.8 			"/>
			<line class="st5" x1="258.5" y1="173.3" x2="264" y2="196.7"/>
		</g>
	</g>
	<rect x="0.2" y="207.6" class="st6" width="981.8" height="12.4"/>
</g>
<g>
	<g id="Layer_2">
		<g>
			<g>
				<polygon class="st7" points="596.9,93.1 594,96.8 594.7,103.8 597.2,109.1 602.5,112.6 608.1,112.6 611.7,110.6 614.2,103.5 
									"/>
			</g>
			<g>
				<polygon class="st7" points="558.7,78.1 555.7,82.2 556.3,90 559.2,95.8 564.8,99.8 570.6,99.8 574.4,97.4 577.3,89.7 				"/>
			</g>
			<polygon class="st8" points="612.9,61.6 595.9,66.1 597.2,68 612.9,63.2 			"/>
			<polygon class="st8" points="612.5,59.2 594.7,62.9 596.1,64.5 612.8,60.8 			"/>
			<path class="st7" d="M606.2,70.1c0,0,17.3-7.1,18,0c0.6,7.1-7.9,9.3-7.9,9.3L606.2,70.1z"/>
			<path class="st8" d="M612.1,55c1.1,5-3.7,11.4-5.8,13.6c-1.9,2.2-1.6,5,1,5.8c2.7,0.8,3.9,0.6,6.6-5.1c2.7-5.8,4-12,4-12
				L612.1,55z"/>
			<g>
				<path class="st9" d="M598.5,50.9c0,0-4.3,1.9-0.6,4.8c0,0-2.4,4,1.9,4.5c4.2,0.3,7.1-1.9,5.5-5.5
					C603.6,51.2,598.5,50.9,598.5,50.9z"/>
				<path class="st10" d="M598.8,53.3c2.2,5.9,9.3,9,15.7,6.6s9.9-9.3,7.7-15.2c-2.2-5.9-9.3-9-15.7-6.6
					C600,40.4,596.6,47.2,598.8,53.3z"/>
				
					<ellipse transform="matrix(0.9373 -0.3484 0.3484 0.9373 19.2687 215.9915)" class="st8" cx="610.1" cy="54.4" rx="0.5" ry="0.3"/>
				<path class="st1" d="M610.9,48.8c1.1,2.9,4,4.3,6.7,3.4c2.7-1,3.9-4,2.9-6.9c-1.1-2.9-4-4.3-6.7-3.4S609.7,46.1,610.9,48.8z"/>
				<path class="st1" d="M598.3,47.5c0.5-0.8,1.3-1.3,2.1-1.6c2.6-1,5.5,0.5,6.4,3.4c1,2.7-0.2,5.8-2.7,6.7
					c-1.6,0.6-3.2,0.3-4.5-0.6c-0.3-0.5-0.5-1.1-0.8-1.6C598,51.5,597.9,49.4,598.3,47.5z"/>
				<path class="st11" d="M613.9,47.7c0.3,1,1.4,1.6,2.2,1.3c0.8-0.3,1.3-1.4,1-2.4s-1.4-1.6-2.2-1.3
					C613.9,45.7,613.4,46.7,613.9,47.7z"/>
				<path class="st11" d="M600.9,51.3c0.3,1,1.4,1.6,2.2,1.3c0.8-0.3,1.3-1.4,1-2.4s-1.4-1.6-2.2-1.3
					C600.9,49.3,600.4,50.4,600.9,51.3z"/>
				<path class="st12" d="M622.3,45.1c0,0,2.1-2.1,3.2,0.3s0,4.5-3,3.9C619.2,48.5,622.3,45.1,622.3,45.1z"/>
				<path class="st9" d="M598.7,44.9c0,0,0.2-7.4,10.8-9.3s12.7,5.6,12.7,5.6s6.6,0.8,4.5,5.9c0,0,5.8,2.7-0.2,5.8
					c-5.1,2.7-6.7-1.6-5.3-4c0,0-3.5-3-1.8-6.7c0,0-5.3,0.6-7.2-4.5c0,0-3.4,5.3-8.2,4.3C604.1,42.2,602.5,46.5,598.7,44.9z"/>
				<g>
					<path class="st8" d="M617.1,54.1c-0.6,2.2-2.2,3.9-4.3,4.5c-1.8,0.5-3.5,0-5.1-1L617.1,54.1z"/>
					<path class="st13" d="M616.6,55.4c-0.6,1.3-1.8,2.4-3.2,3c0-0.6,0.2-1.4,0.6-1.9C614.7,55.7,615.7,55.4,616.6,55.4z"/>
				</g>
			</g>
			<path class="st14" d="M565.9,56.3c-1.3,6.3-6.6,4.2-6.6,4.2l6.7,8.7l5.3-8.7L565.9,56.3z"/>
			<path class="st14" d="M608.5,70.1c-10.4-4.3-16.2-12.4-18.9-22.1c-31-9-37.4,26.5-37.4,26.5l46.7,17.7l36.1,12
				c0,0,3.7-22.9-11.1-35.5C620.5,72.5,613.1,72.2,608.5,70.1z"/>
			<polygon class="st15" points="618.9,92.4 614.1,80.2 604.6,74.1 590.8,77 590.6,75.9 604.8,73 615,79.6 619.7,91.9 			"/>
			<polygon class="st15" points="614.7,80.4 614.4,79.4 622.9,77 625.8,78.3 629.8,76.2 630.3,77.2 625.8,79.4 622.7,78.1 			"/>
			<polygon class="st15" points="576.2,68.8 570.4,56.2 563.4,53.3 563.8,52.3 571.2,55.5 577.2,68.4 			"/>
			<path class="st15" d="M588.6,67.4l-1-0.3l2.9-6.7l-3.2-7.2l-7.1-2.4c-5.6-0.3-8.8,5.1-8.8,5.1l-0.8-0.5c0.2-0.3,3.7-5.9,9.8-5.6
				h0.2l7.5,2.6l3.5,8L588.6,67.4z"/>
			
				<rect x="603.6" y="67.8" transform="matrix(0.9864 -0.1645 0.1645 0.9864 -3.4043 100.3364)" class="st15" width="1" height="5.9"/>
			<path class="st15" d="M622.1,77.7c0,0-1.3-4.3-2.4-6.3l0.8-0.5c1.3,2.1,2.6,6.4,2.6,6.6L622.1,77.7z"/>
			<rect x="578" y="46.5" transform="matrix(0.9115 -0.4113 0.4113 0.9115 31.319 242.2166)" class="st15" width="1" height="3.7"/>
			
				<rect x="586.5" y="50.6" transform="matrix(0.7903 -0.6127 0.6127 0.7903 92.1029 371.2689)" class="st15" width="4" height="1"/>
			
				<rect x="592.7" y="58.1" transform="matrix(0.1704 -0.9854 0.9854 0.1704 432.259 634.8609)" class="st15" width="1" height="5.3"/>
			
				<rect x="556.7" y="63.8" transform="matrix(0.9312 -0.3645 0.3645 0.9312 13.6316 207.7679)" class="st15" width="1" height="8"/>
			<polygon class="st15" points="634.3,90.7 631.9,90 625.3,79.1 626.3,78.6 632.5,89.2 634.6,89.7 			"/>
			<path class="st15" d="M626.9,94.5l-0.5-0.3c-0.2-0.3-0.2-0.6,5.5-5l0.6,0.8c-2.2,1.8-4.8,3.9-5.1,4.2l-0.5-0.3V94.5z M626.9,93.5
				v0.3l0.5-0.2C627.2,93.7,627.1,93.5,626.9,93.5z"/>
			<g>
				<path class="st16" d="M552.8,73.6c0,0,17.5-12.7,68.4,17.7c33.7,20.1-3.7,18.1-15.2,15.1C593.5,103.3,545.1,87.3,552.8,73.6z"/>
				<path class="st17" d="M560.6,76.9c0,0,15.4-8,56.8,16.7c27.4,16.4-4,12.8-13.6,9.9C593.5,100.4,553.4,86.2,560.6,76.9z"/>
				
					<rect x="561.7" y="79.9" transform="matrix(0.8398 -0.5429 0.5429 0.8398 47.5858 322.0166)" class="st1" width="15.4" height="1"/>
				
					<rect x="572.1" y="85.4" transform="matrix(0.8459 -0.5333 0.5333 0.8459 43.9084 323.8718)" class="st1" width="20.7" height="1"/>
				
					<rect x="583.1" y="90.4" transform="matrix(0.8251 -0.565 0.565 0.8251 52.4125 351.0975)" class="st1" width="20.4" height="1"/>
				
					<rect x="596.1" y="95.5" transform="matrix(0.7912 -0.6115 0.6115 0.7912 67.6948 390.2654)" class="st1" width="18.6" height="1"/>
				
					<rect x="610.6" y="100.5" transform="matrix(0.7757 -0.6311 0.6311 0.7757 74.7173 412.2977)" class="st1" width="13.5" height="1"/>
			</g>
			<path d="M622.4,104.3c-4.2,0-8-3.5-9.5-8.7c-1.6-6.1,1-12,5.6-13.5c0.6-0.2,1.3-0.3,1.9-0.3c4.2,0,8.2,3.5,9.5,8.7
				c1.6,6.1-1,12-5.6,13.5C623.9,104.3,623.1,104.3,622.4,104.3z M620.6,82.8c-0.6,0-1.1,0.2-1.8,0.3c-4.2,1.3-6.4,6.7-5,12.4
				c1.3,4.7,4.7,8,8.5,8c0.6,0,1.1-0.2,1.8-0.3c4.2-1.3,6.4-6.7,5-12.4C627.9,86.2,624.3,82.8,620.6,82.8z"/>
			<g>
				<polygon class="st7" points="596.9,81.2 593.5,90.5 588.7,93.4 581.3,93.4 574.3,88.6 570.7,81.7 569.9,72.2 572.8,66.4 
					577.6,63.9 583.7,63.2 				"/>
				<polygon class="st18" points="598.2,83.3 598.2,77.2 597.9,75.9 595.8,75.1 597.2,73.8 596.7,72.2 593.5,67.6 589.7,64.5 
					583.7,63.2 578.1,65.5 574.9,69.3 573.6,74.3 575.2,75.4 573.8,75.9 574.4,81.8 578,87.8 582,90.8 587.4,91.8 587.9,90.5 
					589,92.1 589.2,92.1 593.9,90.2 595.9,88.1 				"/>
				
					<ellipse transform="matrix(0.9628 -0.2704 0.2704 0.9628 0.8059 161.3607)" class="st19" cx="586.1" cy="77.8" rx="9" ry="10.9"/>
				<path class="st20" d="M586.8,86.6c-3.5,0-6.7-2.7-7.9-6.7c-1.3-4.7,0.8-9.5,4.8-10.6c0.5-0.2,1.1-0.2,1.8-0.2
					c3.5,0,6.7,2.7,7.9,6.7c0.6,2.2,0.5,4.7-0.3,6.6c-1,2.1-2.4,3.4-4.3,4C587.9,86.5,587.4,86.6,586.8,86.6z M585.3,70
					c-0.5,0-1,0-1.4,0.2c-3.4,1-5.1,5.1-4,9.3c1,3.5,3.9,6.1,6.9,6.1c0.5,0,1,0,1.4-0.2c1.6-0.5,2.9-1.6,3.7-3.4s1-3.9,0.3-5.9
					C591.3,72.5,588.4,70,585.3,70z"/>
				<path class="st20" d="M586.6,84.4c-2.6,0-5.1-2.1-5.9-5.1c-0.5-1.8-0.3-3.5,0.3-5c0.6-1.6,1.9-2.6,3.4-3
					c0.5-0.2,0.8-0.2,1.3-0.2c2.6,0,5.1,2.1,5.9,5.1c0.5,1.8,0.3,3.5-0.3,5c-0.6,1.6-1.9,2.6-3.4,3
					C587.4,84.4,587.1,84.4,586.6,84.4z M585.5,72.2c-0.3,0-0.6,0-1,0.2c-1.1,0.3-2.1,1.1-2.7,2.4s-0.6,2.7-0.2,4.3
					c0.6,2.6,2.7,4.3,5,4.3c0.3,0,0.6,0,1-0.2c1.1-0.3,2.1-1.1,2.7-2.4s0.6-2.7,0.2-4.3C589.8,74,587.8,72.2,585.5,72.2z"/>
				<path class="st20" d="M586.5,82.2c-1.8,0-3.2-1.3-3.9-3.4c-0.6-2.2,0.3-4.7,2.2-5.1c0.3,0,0.5-0.2,0.8-0.2
					c1.8,0,3.2,1.3,3.9,3.4c0.6,2.2-0.3,4.7-2.2,5.1C587,82,586.6,82.2,586.5,82.2z M585.7,74.6c-0.2,0-0.3,0-0.5,0
					c-1.4,0.3-2.1,2.1-1.6,3.9s2.1,2.9,3.4,2.4c1.4-0.3,2.1-2.1,1.6-3.9C588.2,75.6,587,74.6,585.7,74.6z"/>
				<path class="st20" d="M586.2,79.9c-0.8,0-1.6-0.6-1.9-1.6c-0.2-0.5-0.2-1.1,0-1.6s0.6-0.8,1.1-1c1-0.3,1.9,0.5,2.2,1.6
					c0.2,0.5,0.2,1.1,0,1.6s-0.6,0.8-1.1,1C586.5,79.9,586.3,79.9,586.2,79.9z M586,76.7C585.8,76.7,585.8,76.7,586,76.7
					c-0.3,0.2-0.5,0.3-0.6,0.5c-0.2,0.3-0.2,0.6,0,0.8c0.2,0.6,0.6,1,1.1,0.8c0.3,0,0.3-0.3,0.5-0.5c0.2-0.3,0.2-0.6,0-0.8
					C586.6,77.2,586.3,76.7,586,76.7z"/>
			</g>
			<g>
				<polygon class="st7" points="631.7,97.2 628,105.1 623.7,107.2 617.3,106.7 611.7,102.1 608.9,95.8 608.9,87.4 612.6,83.4 
					614.6,80.9 621.6,80.9 				"/>
				<polygon class="st18" points="632.7,99.3 633.2,94.2 633,92.9 631.2,92.1 632.5,91.1 632.2,89.7 629.8,85.4 626.6,82.5 
					621.6,80.9 616.6,82.5 613.4,85.7 612.1,89.9 613.3,90.8 612,91.3 612.3,96.4 614.9,101.9 618.1,104.8 622.7,106.1 623.4,104.8 
					624.2,106.4 624.3,106.4 628.5,105.1 630.4,103.3 				"/>
				
					<ellipse transform="matrix(0.9815 -0.1913 0.1913 0.9815 -6.4316 120.8247)" class="st19" cx="622.5" cy="93.7" rx="7.7" ry="9.5"/>
				<path class="st20" d="M623.1,101.6c-3.2,0-6.1-2.7-6.7-6.6c-0.8-4.2,1.3-8.2,4.8-8.8c0.3,0,0.6-0.2,1-0.2c3.2,0,6.1,2.7,6.7,6.6
					c0.3,2.1,0.2,4-0.8,5.8s-2.4,2.9-4,3.2C623.7,101.4,623.4,101.6,623.1,101.6z M622.1,87c-0.3,0-0.6,0-0.8,0.2
					c-2.9,0.6-4.8,4-4,7.7c0.6,3.5,3.7,6.3,6.6,5.6c1.4-0.3,2.6-1.3,3.4-2.6c0.8-1.4,1-3.2,0.6-5.1C627.2,89.4,624.8,87,622.1,87z"
					/>
				<path class="st20" d="M622.9,98.7c-2.1,0-3.9-1.8-4.3-4c-0.3-1.3,0-2.6,0.5-3.5c0.6-1.1,1.4-1.8,2.6-2.1c2.2-0.5,4.5,1.4,5,4
					c0.3,1.3,0,2.6-0.5,3.5c-0.6,1.1-1.4,1.8-2.6,2.1C623.2,98.5,623.1,98.7,622.9,98.7z M622.3,89.9c-0.2,0-0.3,0-0.5,0
					c-0.8,0.2-1.4,0.6-1.9,1.4s-0.6,1.9-0.3,2.9c0.5,2.1,2.1,3.5,3.9,3.2c0.8-0.2,1.4-0.6,1.9-1.4s0.6-1.9,0.3-2.9
					C625.3,91.3,623.9,89.9,622.3,89.9z"/>
				<path class="st20" d="M622.6,95.6c-0.8,0-1.4-0.6-1.6-1.6s0.3-1.9,1.3-2.1s1.8,0.5,1.9,1.4c0.2,0.5,0,1-0.2,1.3
					c-0.2,0.5-0.6,0.6-1,0.8C622.9,95.6,622.7,95.6,622.6,95.6z M622.4,92.9c-0.3,0-0.6,0.5-0.5,1s0.5,0.8,0.8,0.6
					c0.2,0,0.3-0.2,0.3-0.3c0.2-0.2,0.2-0.5,0.2-0.6C623.1,93.2,622.7,92.9,622.4,92.9z"/>
			</g>
			<g>
				<polygon class="st2" points="603.3,120 604.9,124 606.2,123.1 604.9,119.1 				"/>
				<polygon class="st2" points="615.8,120.8 616.3,122.4 620.5,122.6 620.2,120.7 				"/>
				<polygon class="st2" points="632.4,133.8 631.2,131.1 630.3,131.7 631.2,134.5 				"/>
			</g>
		</g>
		<g>
			<g>
				<g>
					<path class="st21" d="M717.4,112.8c1.1,9.8,10.6,16.8,21.2,15.7s18.3-10.1,17.2-19.9s-10.6-16.8-21.2-15.7
						C724.1,94,716.4,102.9,717.4,112.8z"/>
					<path class="st8" d="M733.3,118.9c0,0.3,0.3,0.5,0.6,0.5s0.6-0.3,0.5-0.6c0-0.3-0.3-0.5-0.6-0.5
						C733.6,118.3,733.3,118.4,733.3,118.9z"/>
					<path class="st1" d="M737.1,110.7c0.5,4.7,4.5,8,8.8,7.5s7.4-4.7,6.9-9.3c-0.5-4.7-4.5-8-8.8-7.5
						C739.7,102.1,736.7,106.1,737.1,110.7z"/>
					<path class="st1" d="M718.8,104.1c1.1-1,2.4-1.6,3.9-1.8c4.2-0.5,7.9,2.7,8.3,7.4c0.5,4.5-2.4,8.5-6.6,9
						c-2.6,0.3-4.8-0.8-6.4-2.7c-0.3-1-0.3-1.8-0.5-2.7C717.1,109.9,717.6,106.9,718.8,104.1z"/>
					<path class="st8" d="M739.7,121.6c-0.6,0.8-1.9,1.4-3.9,1.4c-0.2,0-0.3-0.2-0.3-0.3s0.2-0.3,0.3-0.3c3.4,0.3,4.2-2.6,4.2-2.6
						c0-0.2,0.3-0.3,0.3-0.2c0.2,0,0.3,0.3,0.2,0.3C740.8,119.9,740.5,120.8,739.7,121.6z"/>
					<path class="st22" d="M740.8,109.8c0.2,1.6,1.4,2.7,2.9,2.7c1.4-0.2,2.4-1.6,2.2-3.2s-1.4-2.7-2.9-2.7
						C741.6,106.7,740.7,108.1,740.8,109.8z"/>
					<path class="st22" d="M720.5,110.1c0.2,1.6,1.4,2.7,2.9,2.7s2.4-1.6,2.2-3.2s-1.4-2.7-2.9-2.7
						C721.3,107,720.1,108.5,720.5,110.1z"/>
					<path class="st21" d="M755.6,109.4c0,0,3.9-2.4,4.7,1.8c0.8,4.2-1.6,6.9-5.9,4.5C749.7,113.4,755.6,109.4,755.6,109.4z"/>
					<path class="st8" d="M740,108.3c0,0-5.8,7.7-12.7,5.1c0,0,3.9-2.7,3.7-7.4"/>
					<g>
						<path class="st8" d="M734.7,92.9c6.4-0.6,12.5,1.6,16.5,5.9l-29.8,1.4C724.5,96.1,729.1,93.4,734.7,92.9z"/>
					</g>
					<path class="st23" d="M755.9,108l-39.6,1.8c0.2-1.4,0.3-2.7,0.8-4.2l37.9-1.8C755.4,105.1,755.8,106.5,755.9,108z"/>
					<path class="st1" d="M753.3,100c0.8,1.1,1.6,2.4,2.1,3.9l-37.9,1.8c0.5-1.4,1.1-2.7,1.8-4L753.3,100z"/>
					<path class="st24" d="M721.6,98.5l28.7-1.6c1.1,1,2.1,1.9,2.9,3.2l-33.9,1.6C720,100.4,720.8,99.5,721.6,98.5z"/>
				</g>
			</g>
			<g>
				<ellipse transform="matrix(0.991 -0.1336 0.1336 0.991 -19.1199 87.177)" class="st25" cx="640" cy="186.1" rx="16" ry="19.7"/>
				<path class="st26" d="M665.1,185.3c-1,0-25.8,1.1-25.8,1.1l-0.5,3l26.8-0.3L665.1,185.3z"/>
				
					<ellipse transform="matrix(0.991 -0.1336 0.1336 0.991 -18.1892 98.8391)" class="st25" cx="727.4" cy="185" rx="16" ry="19.7"/>
				<polygon class="st27" points="697.3,182.3 697.8,192.5 722.2,192.4 722.1,187.4 742.3,187.3 742.4,184.2 722.2,184.4 
					721.9,179.6 				"/>
				<polygon class="st28" points="641.8,141 619.4,141.5 620.2,179.4 642.8,179.2 				"/>
				<polygon class="st27" points="763,125.6 762.8,115 782.1,115 782.1,125.5 778.5,125.3 778.4,118.9 765.4,118.9 765.5,125.2 				
					"/>
				<polygon class="st27" points="671.7,127.6 671.4,119.1 702.5,118.7 702.3,127.2 696.5,127.1 696.5,121.9 675.7,122.1 
					675.8,127.2 				"/>
				<polygon class="st29" points="787.2,123.7 788.2,177.6 642.8,180.7 641.8,141 666.4,140.6 669.7,125.8 				"/>
				<g>
					<polygon class="st30" points="647,145.1 647.1,166.7 784.2,165.1 784,142.6 					"/>
					<g>
						<polygon class="st31" points="784,157.1 647.1,158.1 647.1,161.1 784,160 						"/>
						<polygon class="st31" points="784,147.6 784,142.6 647,145.1 647,148.3 						"/>
						<polygon class="st31" points="647.1,151.6 647.1,155.5 784,153.2 784,150.3 						"/>
						<polygon class="st31" points="647.1,164.1 647.1,166.7 784.2,165.1 784.2,161.6 						"/>
					</g>
				</g>
				<polygon class="st32" points="673.1,129 671,141 784.2,138.6 783.7,127.2 				"/>
				<polygon class="st33" points="727,148.4 719,148.6 719,154 727.4,153.9 				"/>
				<polygon class="st29" points="732.2,127.6 733.1,170.7 738.6,170.6 737.6,126.3 				"/>
				<polygon class="st29" points="691.1,128.4 692.1,171.7 697.5,171.5 696.5,127.2 				"/>
				<g>
					<polygon class="st34" points="677.5,128.8 679.1,140.9 685.5,140.7 683.4,128.8 					"/>
					<polygon class="st34" points="708.4,128.4 710,140.2 719.7,140.1 717.7,128.2 					"/>
					<polygon class="st34" points="754.8,127.7 756.4,139.3 768.4,139 766.3,127.6 					"/>
				</g>
				<path class="st33" d="M787.5,174.3c0,0-2.2-24.5-27.6-24.1c-25.5,0.5-27.3,25.4-27.3,25.4l-34.2,0.6c0,0-3.9-24.7-27.9-24.2
					c-24.1,0.5-27,25.2-27,25.2l-3.9,0.5l0.3,5.6l9.1-0.2l134.1-2.6l9.5-0.2l-0.2-5.8L787.5,174.3z"/>
				<polygon class="st29" points="669.7,125.8 645.5,126.9 641,141 667,140.6 				"/>
				<polygon class="st32" points="669.1,129 644.7,129.6 641,141 667,140.6 				"/>
				<polygon class="st35" points="639.9,177.8 617.9,177.9 617.9,183.4 640.1,183.4 				"/>
				
					<ellipse transform="matrix(0.9998 -1.915960e-02 1.915960e-02 0.9998 -3.1438 11.9809)" class="st1" cx="623.7" cy="170.1" rx="2.1" ry="4.5"/>
				
					<ellipse transform="matrix(0.9998 -1.915960e-02 1.915960e-02 0.9998 -3.1359 12.2283)" class="st1" cx="636.6" cy="169.8" rx="2.1" ry="4.5"/>
				<ellipse transform="matrix(0.991 -0.1336 0.1336 0.991 -17.4844 103.2797)" cx="760.8" cy="181.9" rx="21.3" ry="23.6"/>
				<g>
					<path class="st36" d="M767.9,175.5c-0.6-0.6-1.4-1.6-2.2-2.1l-3.7,5l-1-6.7c-1.3,0-1.1,0-1.8,0c-0.5,0,0,0-1.3,0.3l1,6.9
						l-5-4.2c-0.6,0.6-1.1,1.9-1.4,2.7l5.1,4.8l-6.3,0.8c0,0,0,0.5,0,1c0,0.6,0.2,0.8,0.3,1.4l6.1-0.8l-3.5,5.1
						c0.6,0.6,1.3,1.3,2.1,1.8l3.4-5.1l0.8,6.3c1.3-0.2,0.8,0,1.3,0c0.6,0,0.5-0.2,1.8-0.5l-0.8-6.3l4.7,3.9
						c0.6-0.6,1.3-1.4,1.6-2.2l-4.3-3.9l5.6-0.8c0-0.6,0-0.8,0-1.4c0-0.5-0.2-1-0.2-1l-5.6,0.8L767.9,175.5z"/>
					
						<ellipse transform="matrix(0.991 -0.1336 0.1336 0.991 -17.495 103.2783)" class="st37" cx="760.8" cy="182" rx="2.4" ry="2.6"/>
					<path class="st37" d="M759.1,169c-6.6,1-11.1,7.4-10.1,14.8c1,7.2,7.1,12.4,13.6,11.6c6.6-1,11.1-7.4,10.1-14.8
						C771.8,173.1,765.7,168,759.1,169z M762.2,191.9c-5,0.6-9.5-3.2-10.3-8.7c-0.6-5.5,2.7-10.4,7.7-11.1c5-0.6,9.5,3.2,10.3,8.7
						C770.5,186.3,767.1,191.3,762.2,191.9z"/>
				</g>
				<ellipse transform="matrix(0.991 -0.1336 0.1336 0.991 -18.5328 91.3544)" cx="671.4" cy="183.8" rx="21.3" ry="23.6"/>
				<g>
					<path class="st36" d="M678.4,176.5c-0.6-0.6-1.4-1.6-2.2-2.1l-3.7,5l-1-6.7c-1.3,0-1.1,0-1.8,0c-0.5,0,0,0-1.3,0.3l1,6.9
						l-5-4.3c-0.6,0.6-1.1,1.9-1.4,2.7l5.1,4.8l-6.3,0.8c0,0,0,0.5,0,1c0,0.6,0.2,0.8,0.3,1.4l6.1-0.8l-3.5,5.3
						c0.6,0.6,1.3,1.3,2.1,1.8l3.4-5.1l0.8,6.3c1.3-0.2,0.8,0,1.3,0c0.6,0,0.5-0.2,1.8-0.5l-0.8-6.3l4.7,3.9
						c0.6-0.6,1.3-1.4,1.6-2.2l-4.3-3.9l5.6-0.8c0-0.6,0-0.8,0-1.4c0-0.5-0.2-1-0.2-1l-5.6,0.8L678.4,176.5z"/>
					
						<ellipse transform="matrix(0.991 -0.1336 0.1336 0.991 -18.439 91.3485)" class="st37" cx="671.4" cy="183.1" rx="2.4" ry="2.6"/>
					<path class="st37" d="M669.7,169.9c-6.6,1-11.1,7.4-10.1,14.8s7.1,12.4,13.6,11.6c6.6-1,11.1-7.4,10.1-14.8
						C682.4,174.1,676.3,169.1,669.7,169.9z M672.8,193c-5,0.6-9.5-3.2-10.3-8.7s2.7-10.4,7.7-11.1c5-0.6,9.5,3.2,10.3,8.7
						C681.1,187.4,677.8,192.2,672.8,193z"/>
				</g>
				
					<rect x="619.8" y="146.9" transform="matrix(1 -9.763768e-03 9.763768e-03 1 -1.4095 6.1663)" class="st1" width="22.1" height="1"/>
				
					<rect x="619.9" y="152" transform="matrix(1 -9.763768e-03 9.763768e-03 1 -1.4587 6.1678)" class="st1" width="22.1" height="1"/>
				
					<rect x="619.8" y="156.8" transform="matrix(1 -9.763768e-03 9.763768e-03 1 -1.5056 6.1674)" class="st1" width="22.1" height="1"/>
				
					<rect x="620.1" y="161.5" transform="matrix(0.9999 -1.171905e-02 1.171905e-02 0.9999 -1.8556 7.4076)" class="st1" width="22.1" height="1"/>
			</g>
		</g>
		<path class="st38" d="M304.5,207.8c0,0,0.5-13.6,10.1-13.8c9.6-0.2,10.8,9.1,10.8,9.1s-0.5-27.8,13.5-31.4
			c14-3.9,17.7,27.9,17.7,27.9s-1.1-42,14.3-44.1c15.6-2.1,29.5,18.5,27.3,52.1L304.5,207.8z"/>
		<g>
			<path d="M460.4,90v13.3l9.3-1.3l-2.4-13.5C467.1,88.6,458.3,89.7,460.4,90z"/>
			<path d="M429.4,80.2l-3.9,1c0,0-0.3,28.2,25,26.2l0.3-2.1C427.6,105.4,429.4,80.2,429.4,80.2z"/>
			<path class="st39" d="M439.8,78.6c3.2,10.6,15.1,16.4,26.3,12.8s17.7-14.9,14.3-25.5s-15.1-16.4-26.3-12.8
				C442.9,56.7,436.4,68,439.8,78.6z"/>
			<path d="M435.3,70c-3.2-10.6,3.4-22.1,16.4-26.3c13-4,27.3,1,30.6,11.6c1.1,3.5,1,7.2-0.3,10.8c-0.6,0.2-1.1,0.5-1.4,0.8
				c0-0.3-0.2-0.5-0.2-0.8l0,0l0,0c-1.6-1.1-4.8-14.3-22.9-10.1c-11.9,2.7-17.2,6.9-17.7,11.1c-1,3-1.3,6.3-0.6,9.5
				C437.4,74.6,436.1,72.4,435.3,70z"/>
			<circle class="st39" cx="426.5" cy="74.8" r="8.5"/>
			<polygon class="st40" points="439.3,87.8 418.5,89.2 422.8,121.9 445.1,122.4 			"/>
			<polygon class="st40" points="480.2,91.6 461,97.4 460.8,97.4 455.2,123.2 479.4,123.7 			"/>
			<polygon class="st41" points="439.3,87.8 439.5,122.4 460.2,123.2 460.8,97.4 			"/>
			<path class="st39" d="M424.6,67.6c0,0,2.4-6.7,9-5.9c6.6,0.8,3.9,5.8-2.4,5.1c-2.9-0.3-2.6,7.7-2.6,7.7"/>
			<ellipse class="st1" cx="468.9" cy="70" rx="8.8" ry="9.1"/>
			<ellipse class="st42" cx="469" cy="73.8" rx="3.9" ry="4"/>
			<ellipse cx="459.1" cy="82.5" rx="0.8" ry="1"/>
			<ellipse transform="matrix(0.9934 -0.1146 0.1146 0.9934 -17.9794 53.2178)" class="st25" cx="453.9" cy="183" rx="16" ry="21"/>
			
				<ellipse transform="matrix(0.9934 -0.1146 0.1146 0.9934 -18.8928 41.276)" class="st25" cx="349.5" cy="185" rx="15.7" ry="20.1"/>
			<path class="st43" d="M354.5,80.2c0,0-1.1-19.4,11.4-19.4s9.9,20.1,9.9,20.1L354.5,80.2z"/>
			<path class="st1" d="M365.5,68.7c-1.4,2.1-3.9,3.2-5.3,2.6c-1.4-0.6-1.4-3,0-5.1s3.9-3.2,5.3-2.6C367,64.3,367,66.6,365.5,68.7z"
				/>
			<polygon class="st32" points="350.3,86.6 350.3,78.6 378,79.1 378.5,88.3 			"/>
			<path class="st32" d="M334.9,78c7.1,0.3,17.2-0.3,17-8.5c-0.3-8.2-17-6.7-17-6.7V78z"/>
			<polygon class="st32" points="390.7,69.6 390.6,92.4 392.8,92.3 393.3,69.8 			"/>
			<polygon class="st32" points="341.1,69.6 341,92.4 343.4,92.3 343.9,69.8 			"/>
			<path class="st32" d="M383,78.9c9.5,0.3,22.8-0.3,22.5-10.3c-0.3-9.9-22.5-8.2-22.5-8.2V78.9z"/>
			<ellipse class="st44" cx="334.9" cy="70.3" rx="3.2" ry="7.5"/>
			<ellipse class="st44" cx="383" cy="69.8" rx="4.3" ry="9.3"/>
			<path class="st27" d="M477.5,180.8c-1.3,0-33.4,1.3-33.4,1.3l-0.6,3.4l34.7-0.3L477.5,180.8z"/>
			<path class="st26" d="M376.9,181.6c-1,0-24.6,0.8-24.6,0.8l-0.5,3.4l25.4,0.2L376.9,181.6z"/>
			<polygon class="st26" points="416.9,189.2 404.8,189.2 405,175.5 416.2,175.5 			"/>
			<polygon class="st27" points="416.2,176.5 416.9,189.2 450.6,189.5 450.2,176.2 			"/>
			<polygon class="st45" points="328.8,84.9 329.1,174.1 361.4,174.6 363.1,84.6 			"/>
			<polygon class="st43" points="363.1,84.6 407.7,85.5 409.5,110.1 518.1,112.5 520,172.8 361.4,174.6 			"/>
			<polygon class="st46" points="328.5,135.1 362.8,135.4 361.8,155.8 328.8,155.8 			"/>
			
				<rect x="328.9" y="140.6" transform="matrix(1 -9.275695e-03 9.275695e-03 1 -1.294 3.2116)" class="st47" width="33.4" height="1"/>
			
				<rect x="328.6" y="148.3" transform="matrix(0.9996 -2.830896e-02 2.830896e-02 0.9996 -4.073 9.8298)" class="st47" width="33.1" height="1"/>
			<g>
				<g>
					<polygon class="st17" points="408.4,115.2 525.2,116.7 525.2,121.1 408.2,120.5 					"/>
					<polygon class="st17" points="409.2,134.6 409.2,141 524.9,142.2 525.2,137.7 					"/>
					<polygon class="st17" points="419.3,117.5 419,137.2 423,137.2 423,117 					"/>
					<polygon class="st17" points="441.7,117.5 441.4,137.2 445.4,137.2 445.4,117 					"/>
					<polygon class="st17" points="464.2,117.5 463.9,137.2 467.9,137.2 467.9,117 					"/>
					<polygon class="st17" points="486.7,117.5 486.3,137.2 490.4,137.2 490.4,117 					"/>
					<polygon class="st17" points="509.1,117.5 508.8,139.3 513,139.3 513,117 					"/>
				</g>
				<path class="st48" d="M408.4,115.2l-0.3,5.6C408,120.8,411.9,117.8,408.4,115.2z"/>
				<path class="st48" d="M409.2,134.6v6.3C409.2,141,413.8,137.7,409.2,134.6z"/>
			</g>
			<ellipse class="st1" cx="333.6" cy="163" rx="1.8" ry="3.2"/>
			<ellipse class="st1" cx="357.3" cy="163" rx="1.8" ry="3.2"/>
			<polygon class="st45" points="323.8,170.2 524.1,171.5 524.1,178.4 323.5,178.1 			"/>
			<g>
				<path class="st45" d="M437.1,166.9l-0.8-16.5l24.1,0.3l0.3,16L437.1,166.9z M437.4,151.3l0.6,14.6l21.8-0.2l-0.3-14.1
					L437.4,151.3z"/>
				<path class="st45" d="M408.5,167l-0.3-17l25.2,0.3l0.2,16.7H408.5z M409.2,151l0.3,15.1l23.1-0.2l-0.2-14.8L409.2,151z"/>
			</g>
			<polygon class="st49" points="328.5,95.5 328.5,129.8 362.3,130.3 362.8,96 			"/>
			<polygon class="st1" points="395.7,96.4 362.8,96 362.3,130.3 395.7,130.8 			"/>
			<polygon class="st43" points="372.7,91.5 372.1,140.6 378.7,140.2 379.8,91.8 			"/>
			<path class="st17" d="M374,135.4l18.3,1c0,0,0.3,15.7-10.3,14.9C371.5,150.5,374,135.4,374,135.4z"/>
			<path class="st50" d="M382.9,148.6c0,0-4.3-1.4-4-5c0.3-3.5,3.2-5.1,3.2-5.1s-1.1,4.5,1.1,4.7s0.3-5.6,0.3-5.6s3.2,0.6,3.7,5.1
				C387.3,147.3,382.9,148.6,382.9,148.6z"/>
			<path class="st45" d="M464.4,172.8c0,0,4.7-18.6,21-19.7c16.4-1.1,22.9,6.3,29,20.4L464.4,172.8z"/>
			<ellipse transform="matrix(0.9934 -0.1146 0.1146 0.9934 -17.5629 57.2291)" cx="488.9" cy="181.4" rx="21.7" ry="24.1"/>
			<g>
				<path class="st36" d="M496.3,174.9c-0.6-0.8-1.4-1.6-2.2-2.1l-3.9,5l-0.8-6.9c-1.3,0-1.1,0-1.8,0c-0.5,0,0,0-1.3,0.3l0.8,7.1
					l-5-4.5c-0.6,0.6-1.1,1.9-1.4,2.7l5.1,4.8l-6.3,0.8c0,0,0,0.5,0,1c0,0.6,0.2,0.8,0.3,1.4l6.3-0.8l-3.7,5.1
					c0.6,0.6,1.3,1.3,2.1,1.8l3.5-5.1l0.8,6.4c1.3,0,0.8,0,1.3,0c0.6,0,0.5-0.2,1.8-0.5l-0.8-6.3l4.7,3.9c0.6-0.6,1.3-1.4,1.6-2.2
					l-4.3-3.9l5.8-0.6c0-0.6,0-0.8,0-1.6c0-0.5-0.2-1-0.2-1l-5.8,0.6L496.3,174.9z"/>
				
					<ellipse transform="matrix(0.9934 -0.1146 0.1146 0.9934 -17.5711 57.2374)" class="st37" cx="489" cy="181.4" rx="2.4" ry="2.7"/>
				<path class="st37" d="M487.6,168.2c-6.6,0.8-11.4,7.4-10.6,14.6c0.8,7.4,6.9,12.7,13.5,11.9s11.4-7.4,10.6-14.6
					C500.3,172.7,494.2,167.4,487.6,168.2z M490.4,191.4c-5,0.5-9.6-3.5-10.3-9c-0.6-5.6,2.9-10.6,7.9-11.1s9.6,3.5,10.3,9
					C498.9,186,495.3,190.8,490.4,191.4z"/>
			</g>
			<ellipse transform="matrix(0.9934 -0.1146 0.1146 0.9934 -18.562 45.4706)" cx="386.2" cy="184.2" rx="19.4" ry="21.5"/>
			<g>
				<path class="st36" d="M392.8,178.3c-0.5-0.6-1.3-1.4-1.9-1.9l-3.5,4.5l-0.6-6.3c-1.1,0-1.1,0-1.6,0c-0.3,0,0,0-1.1,0.3l0.8,6.3
					l-4.3-4c-0.5,0.6-1,1.8-1.3,2.4l4.7,4.3l-5.6,0.6c0,0,0,0.5,0,0.8c0,0.6,0.2,0.8,0.3,1.3l5.6-0.6l-3.4,4.7
					c0.5,0.6,1.1,1.1,1.9,1.6l3.2-4.7l0.6,5.8c1.1,0,0.8,0,1.1,0c0.5,0,0.5-0.2,1.6-0.3l-0.6-5.6l4.2,3.5c0.5-0.6,1.1-1.3,1.6-2.1
					l-4-3.5l5.1-0.6c0-0.5,0-0.8,0-1.3s-0.2-0.8-0.2-0.8l-5.1,0.6L392.8,178.3z"/>
				
					<ellipse transform="matrix(0.9934 -0.1146 0.1146 0.9934 -18.5415 45.4881)" class="st37" cx="386.3" cy="184" rx="2.1" ry="2.4"/>
				<path class="st37" d="M384.9,172.2c-5.9,0.6-10.3,6.6-9.5,13.2s6.3,11.4,12.2,10.8s10.3-6.6,9.5-13.2
					C396.3,176.2,390.9,171.4,384.9,172.2z M387.3,193c-4.5,0.5-8.7-3-9.1-8c-0.5-5,2.6-9.5,7.1-9.9c4.5-0.5,8.7,3,9.1,8
					C395,188.2,391.8,192.5,387.3,193z"/>
			</g>
			<path class="st39" d="M480.2,66.4c0,0,3.7-3.4,5.5,1c1.6,4.3-0.3,7.9-5.6,6.3C475,71.9,480.2,66.4,480.2,66.4z"/>
			<circle class="st39" cx="479.8" cy="108.1" r="7.1"/>
			<g>
				<polygon class="st43" points="423.8,94.2 431.5,101.6 433.4,99.5 425.9,92.3 				"/>
				<polygon class="st43" points="430.8,92.6 424.1,99.5 425.4,101.2 433.1,94.2 				"/>
			</g>
			<path class="st51" d="M469.7,107.8l-1-1c0,0-0.8-0.8-1.9-1.6l-1.1-0.8l1.6-2.2l1.1,0.8c1.4,1,2.2,1.9,2.4,1.9l1,1L469.7,107.8z"
				/>
			<path class="st52" d="M443.8,108.1c-1,0-1.9-0.2-2.9-0.3l-1.3-0.3v-2.7l1.8,0.3c1.3,0.3,2.7,0.3,4.2,0l1.3-0.2l0.3,2.7l-1.3,0.2
				C445.4,108,444.6,108.1,443.8,108.1z"/>
			<path class="st52" d="M449.6,107l-1.1-2.4l1.3-0.5c0.8-0.5,1.8-1,2.7-1.4c0.5-0.3,0.8-0.5,1.3-0.8l1.3-0.6l1.3,2.4l-1.3,0.6
				c-0.3,0.2-0.8,0.3-1.1,0.6c-1,0.6-2.1,1.3-3,1.6L449.6,107z"/>
			<path class="st51" d="M437.4,106.7l-1.1-0.8c-0.8-0.5-1.8-1.1-2.4-1.9l-1-1l1.9-1.9l1,1c0.5,0.5,1.1,1.1,1.9,1.4l1.1,0.8
				L437.4,106.7z"/>
			<path class="st52" d="M458.7,100.3l-1.3,0.2l0.3,2.7l1.3-0.2c0.6,0,1.1,0,1.8,0v-2.7C460,100.1,459.4,100.1,458.7,100.3z"/>
			<path class="st51" d="M463.9,100.8c-1-0.3-1.9-0.5-3-0.5v2.7c0.8,0,1.4,0.2,2.2,0.5l1.3,0.3l0.8-2.6L463.9,100.8z"/>
			<path d="M465.6,87.8c-0.3,0-0.5-0.2-0.6-0.5c-0.2-0.3,0-0.8,0.3-1c0,0,3.7-1.6,4.8-3.9c0.2-0.3,0.6-0.5,1-0.3
				c0.3,0.2,0.5,0.6,0.3,1c-1.4,2.7-5.5,4.3-5.6,4.5C466,87.6,465.8,87.8,465.6,87.8z"/>
			<path d="M445.6,82.5c-0.2,0-0.2,0-0.3,0c-0.3-0.2-0.5-0.6-0.5-1c0.6-1.6,2.9-2.4,4.7-2.7c-3-1.6-5.3-0.8-5.3-0.8
				c-0.3,0.2-0.8,0-1-0.3s0-0.8,0.3-1c0.2,0,3.7-1.4,8.3,2.1c0.3,0.2,0.3,0.5,0.3,0.8c-0.2,0.3-0.3,0.5-0.6,0.5
				c-1.8,0.2-5,0.6-5.5,2.1C446.2,82.3,445.9,82.5,445.6,82.5z"/>
		</g>
		<g>
			<path class="st53" d="M211.2,127.1l83.1,16.2c0,0-5.6,39-48.5,30.5C203,165.4,211.2,127.1,211.2,127.1z"/>
			<path class="st53" d="M207.6,155.2c0.3-2.1,3.5-2.4,3.5-2.4c-19.4-6.7-17-21.3-13.2-24.9c4-3.5,14.3-0.6,12.5,7.2
				c-1.6,7.9-8.5,2.7-6.7,0.5c1.8-2.1,3.9-0.2,3.9-0.2s-0.5-5.1-4.3-4.7c-3.9,0.5-8.2,8-0.8,13.6c7.4,5.8,9.8,4.7,12.5,8.7
				C218.4,157.9,207,160,207.6,155.2z"/>
			<g>
				<path class="st54" d="M294.1,143.3L211,127.1c0,0-1.6,7.2,0.3,16l76.7,15.7C293.2,151,294.1,143.3,294.1,143.3z"/>
			</g>
			<g>
				<polygon class="st55" points="220.9,145.1 231.7,147.3 233,131.3 222.1,129.2 				"/>
				<polygon class="st55" points="256.9,135.9 245,133.7 243.4,149.7 253.4,151.6 				"/>
				<polygon class="st55" points="280,140.4 268.3,138.2 264.6,154 275.3,156.3 				"/>
			</g>
			<path class="st54" d="M195.6,173.8c-6.3-1.1-6.4-8.7-6.4-8.7L293,184.8c0,0-2.2,7.4-9.3,5.9C276.5,189.5,195.6,173.8,195.6,173.8
				z"/>
			<g>
				<path class="st56" d="M298.9,145.7l-9.8,2.1l-4.2,4.8L286,164l13.3,11.4l15.2-17.3L298.9,145.7z M290.3,154c-1,0.5-2.1,0-2.6-1
					s-0.2-2.2,0.8-2.7s2.1,0,2.6,1C291.7,152.4,291.2,153.7,290.3,154z"/>
				<polygon class="st57" points="288,161.9 298.9,171.8 311.1,158.9 298.8,148.9 				"/>
				<polygon class="st56" points="292.2,161.6 295.4,164.3 296.5,162.9 294.9,161.1 296.4,159.5 301.2,163.5 299.6,165.4 
					300.9,166.6 305,162.1 303.7,160.6 302.1,162.1 297.8,158.1 299.1,156.6 301.2,158.5 302.8,156.8 298.8,153.2 				"/>
			</g>
			<path class="st58" d="M282.9,140.9l-1.8-0.3c0,0,0.8,9.9,7.9,11.4l1-1.3C282.6,148.6,282.9,140.9,282.9,140.9z"/>
			<ellipse transform="matrix(0.9934 -0.1146 0.1146 0.9934 -19.2885 25.5316)" cx="212.4" cy="180.5" rx="14.8" ry="16.4"/>
			<g>
				<path class="st36" d="M218.1,176.2c-0.3-0.5-1-1.3-1.4-1.6l-3,3.4l-0.3-5c-1,0-0.8-0.2-1.3,0c-0.3,0,0,0-1,0.2l0.3,5.1l-3.4-3.6
					c-0.5,0.5-0.8,1.3-1.3,1.9l3.5,3.9l-4.7,0.3c0,0,0,0.3,0,0.6c0,0.5,0,0.6,0.2,1.1l4.5-0.2l-2.9,3.5c0.5,0.5,0.8,1,1.3,1.3
					l2.7-3.5l0.3,4.7c0.8,0,0.6,0,1,0c0.5,0,0.5,0,1.3-0.2l-0.3-4.7l3.2,3c0.5-0.5,1-1,1.3-1.6l-3-3l4.2-0.2c0-0.5,0.2-0.6,0-1.1
					c0-0.3,0-0.6-0.2-0.6l-4.2,0.2L218.1,176.2z"/>
				
					<ellipse transform="matrix(0.9989 -4.765329e-02 4.765329e-02 0.9989 -8.3651 10.3337)" class="st37" cx="212.5" cy="180.6" rx="1.8" ry="1.9"/>
				<path class="st37" d="M212,170.9c-4.8,0.3-8.5,4.8-8.3,10.1c0.2,5.3,4.3,9.5,9.1,9.1c4.8-0.3,8.5-4.8,8.3-10.1
					S216.9,170.6,212,170.9z M212.9,187.9c-3.7,0.2-6.7-3-6.9-7.1s2.6-7.4,6.3-7.5c3.7-0.2,6.7,3,6.9,7.1
					C219.3,184.4,216.5,187.7,212.9,187.9z"/>
			</g>
			<ellipse transform="matrix(0.9934 -0.1146 0.1146 0.9934 -19.8399 31.8922)" cx="267.5" cy="188.5" rx="16" ry="17.7"/>
			<g>
				<path class="st36" d="M273.6,183.7c-0.5-0.6-1.1-1.3-1.6-1.8l-3.2,3.7l-0.3-5.5c-1,0-1-0.2-1.4,0c-0.3,0,0,0-1,0.2l0.3,5.5
					l-3.7-3.7c-0.5,0.5-1,1.4-1.3,2.1l3.9,4l-5,0.3c0,0,0,0.3,0,0.8s0,0.6,0.2,1.1l5-0.3l-3.2,3.9c0.5,0.5,1,1.1,1.4,1.4l3-3.9
					l0.3,5.2c1,0,0.6,0,1,0c0.5,0,0.5,0,1.4-0.3l-0.3-5l3.4,3.2c0.5-0.5,1.1-1.1,1.4-1.8l-3.2-3.2l4.5-0.3c0-0.5,0.2-0.6,0-1.1
					c0-0.3,0-0.8-0.2-0.8l-4.7,0.3L273.6,183.7z"/>
				
					<ellipse transform="matrix(0.9988 -4.906731e-02 4.906731e-02 0.9988 -8.929 13.3551)" class="st37" cx="267.6" cy="188.5" rx="1.9" ry="2.1"/>
				<path class="st37" d="M267.2,177.9c-5.3,0.3-9.3,5.1-9,10.9s4.8,10.3,9.9,9.9c5.1-0.3,9.3-5.1,9-10.9
					C276.8,182.1,272.5,177.6,267.2,177.9z M268.1,196.4c-4,0.2-7.4-3.2-7.5-7.5c-0.2-4.3,2.9-8.2,6.7-8.3c3.9-0.2,7.4,3.2,7.5,7.5
					C275,192.4,272,196.2,268.1,196.4z"/>
			</g>
			<g>
				<path class="st8" d="M266,138.5c6.1-6.3,0-14.6,0-14.6l5.5-2.1c0,0,9.8,7.1,4.8,18"/>
				<polygon class="st8" points="238.6,116.5 252.1,116.3 251.9,113.8 238.4,113.3 				"/>
				<path class="st8" d="M271.5,121.9l0.5,3.4c0,0,6.3-4,11.2-4.7l-0.3-3.2C277.1,118.3,271.5,121.9,271.5,121.9z"/>
				<circle class="st59" cx="215.5" cy="115.5" r="7.9"/>
				<circle class="st59" cx="271.5" cy="137.5" r="7.9"/>
				<polygon class="st59" points="215.5,112.3 215.2,116.8 238.6,116.5 238.4,113.3 				"/>
				<path class="st59" d="M291.9,121.3c-2.1-3.5-5.6-4.2-9.1-3.9l0.2,3.3c2.7-0.3,4.8,0.3,5.5,2.9c1.9,7.5-11.2,10.6-11.2,10.6
					l1,2.9C278.6,137,297.2,130.3,291.9,121.3z"/>
				<path class="st59" d="M215.2,107.7c0,0-14.1,0.6-13.5,3.9s7.2,2.4,12.8-1.4"/>
				<path class="st60" d="M214.4,120.8c-0.2,0-0.5,0-0.8-0.2c-0.8-0.3-1.3-0.8-1.6-1.4c-0.8-1.8,0.2-4.5,0.2-4.7l1,0.3
					c0,0-0.8,2.4-0.2,3.9c0.2,0.5,0.5,0.8,1.1,1c0.5,0.2,0.8,0,1,0c0.8-0.6,1.1-2.9,1-4.2h1c0,0.3,0.2,3.9-1.4,5
					C215.2,120.7,214.9,120.8,214.4,120.8z"/>
				<path class="st59" d="M241.3,107.7c-0.2,9.8,8.3,18,18.9,18.1c10.6,0.2,19.3-7.7,19.4-17.5c0.2-9.8-8.3-18-18.9-18.1
					C250,90,241.3,97.9,241.3,107.7z"/>
				<polygon points="263.3,107.3 253.5,106.4 253.5,108 262.5,109.1 				"/>
				<ellipse cx="256.7" cy="115.5" rx="0.6" ry="0.5"/>
				
					<ellipse transform="matrix(1.432230e-02 -0.9999 0.9999 1.432230e-02 156.0643 375.7158)" cx="268.6" cy="108.7" rx="8.3" ry="7.9"/>
				
					<ellipse transform="matrix(1.432230e-02 -0.9999 0.9999 1.432230e-02 156.0643 375.7158)" class="st1" cx="268.6" cy="108.7" rx="6.6" ry="6.3"/>
				<ellipse transform="matrix(0.1041 -0.9946 0.9946 0.1041 115.8098 341.5604)" cx="247.5" cy="106.5" rx="8.3" ry="7.9"/>
				
					<ellipse transform="matrix(0.1041 -0.9946 0.9946 0.1041 115.8098 341.5604)" class="st1" cx="247.5" cy="106.5" rx="6.6" ry="6.1"/>
				
					<ellipse transform="matrix(1.434018e-02 -0.9999 0.9999 1.434018e-02 137.5628 352.1516)" class="st61" cx="247.4" cy="106.3" rx="1.8" ry="1.6"/>
				
					<ellipse transform="matrix(1.434018e-02 -0.9999 0.9999 1.434018e-02 156.0619 375.3173)" class="st61" cx="268.4" cy="108.5" rx="1.8" ry="1.6"/>
				<path class="st22" d="M273.9,119.7c-1.1,0.8-2.1,0-2.1,0s-1.1,4.7,4,3.5s7.4-9.6,7.4-9.6c1.6-9.6-2.1-17.8-10.4-21.8
					c-8.2-4-15.2-2.7-21.7,0.5l26.8,10.6C278.1,103,280.8,115.2,273.9,119.7z"/>
				<polygon class="st1" points="275.8,95.6 274.4,100 272.3,98.8 274.1,94.8 				"/>
				<g>
					<path class="st1" d="M250.3,117.5c7.2,3.5,14.9,1.1,14.9,1.1s1.6-0.5,1.6,1.1s-4,3-9.6,2.6s-8.3-2.6-8.3-3.2
						C248.9,117.6,249.5,117,250.3,117.5z"/>
					<path class="st62" d="M264.1,122.4c-0.3,0-0.6-0.3-0.6-0.6l-0.3-3c0-0.3,0.2-0.8,0.6-0.8c0.5,0,0.8,0.2,0.8,0.6l0.3,3
						C264.8,122.1,264.6,122.4,264.1,122.4L264.1,122.4z"/>
					<path class="st62" d="M259.9,123.1c-0.3,0-0.6-0.3-0.8-0.6l-0.2-3c0-0.5,0.3-0.8,0.6-0.8s0.8,0.3,0.8,0.6l0.2,3
						C260.7,122.7,260.4,123.1,259.9,123.1L259.9,123.1z"/>
					<path class="st62" d="M255.9,122.7L255.9,122.7c-0.5,0-0.8-0.3-0.8-0.8l0.2-3c0-0.5,0.3-0.8,0.8-0.6c0.5,0,0.6,0.3,0.6,0.8
						l-0.2,3C256.6,122.4,256.3,122.7,255.9,122.7z"/>
					<path class="st62" d="M252.1,121.9L252.1,121.9c-0.5,0-0.8-0.5-0.8-0.8l0.3-2.9c0-0.3,0.3-0.6,0.8-0.6c0.3,0,0.6,0.3,0.6,0.8
						l-0.3,2.9C252.7,121.6,252.4,121.9,252.1,121.9z"/>
				</g>
			</g>
		</g>
		<g>
			<polygon class="st63" points="112.5,57 110.1,61 111.7,62.6 114.1,58.2 			"/>
			<polygon class="st17" points="118.3,59 115.9,63.2 117.5,64.8 120.2,59.7 			"/>
			<path class="st63" d="M101.2,61.6l13.2,3.7c0,0-0.8-3.5-5.9-5C103.3,58.9,101.2,61.6,101.2,61.6z"/>
			<path class="st43" d="M128.7,54.7c1.1-3.5,1-3,0.5-5c-0.2-0.5,0.2,0.5,0,0c-0.3-1.1,5.5-1.3,4-12.7c0,0-6.9,4-10.4,3.5
				c-0.2,0,0.2,0.2,0,0c-3.7-1.6-7.7-1.3-7.7-1.3l1.6-5.1c0,0-10.6-1.9-11.1,10.9c-1.3,1.8-1.3,4.3-8.2,6.6c2.1,4,11.9,4.2,8.5,1.8
				c1.6,5.8,6.9,7.2,13.8,6.6C126.6,59.4,128.7,54.7,128.7,54.7z"/>
			<path class="st64" d="M105.7,45.1c-1.3,1.8-1.3,4.3-8.2,6.6c1.6,3,7.5,4,9,3l-0.5-1.3C105.9,53.4,104.5,51.5,105.7,45.1z"/>
			<g>
				<path class="st65" d="M118.6,42.2c0,0-6.7-4-12.5,0c-0.3,1.1-0.5,2.2-0.5,3.7c-0.2,3,0,5.5,0.5,7.4
					C123.1,50.4,118.6,42.2,118.6,42.2z"/>
			</g>
			<path class="st17" d="M105.6,42.4c0,0-4.2,1.9-6.4,6.1c0,0,2.4,4.2,6.6,5C109.4,54.2,110.9,40.1,105.6,42.4z"/>
			
				<ellipse transform="matrix(9.789393e-02 -0.9952 0.9952 9.789393e-02 57.6565 152.6067)" class="st1" cx="113" cy="44.5" rx="1.9" ry="1.3"/>
			<path class="st17" d="M108.8,62.6l13.2,3.7c0,0-0.8-3.5-5.9-5C110.9,59.9,108.8,62.6,108.8,62.6z"/>
			<path class="st43" d="M119.7,46.5c0,0,8.2,6.4,17.8,0.3c3.7,1.1,5.9,6.7,5.9,6.7s-9.8,4-16,2.7"/>
			
				<rect x="126.5" y="40.3" transform="matrix(0.8575 -0.5144 0.5144 0.8575 -5.0343 71.7611)" class="st64" width="1" height="9.3"/>
			
				<rect x="127.5" y="44.2" transform="matrix(0.8533 -0.5214 0.5214 0.8533 -4.1416 74.7676)" class="st64" width="6.6" height="1"/>
			
				<rect x="125.6" y="41.3" transform="matrix(0.8693 -0.4942 0.4942 0.8693 -3.6925 69.5992)" class="st64" width="8.3" height="1"/>
			<path class="st63" d="M99,48.9c-0.3,0-0.5-0.2-0.5-0.5s0.2-0.5,0.5-0.5c0,0,6.6-0.3,9.8-1.8c0.3-0.2,0.5,0,0.6,0.3
				c0.2,0.3,0,0.5-0.3,0.6C105.7,48.6,99.3,48.9,99,48.9L99,48.9z"/>
		</g>
		<path class="st66" d="M402.6,207.8c0,0,1-24.1,20.9-24.5s22.3,16.4,22.3,16.4s-1-48.9,27.8-55.7c28.7-6.7,36.7,49.4,36.7,49.4
			s-2.6-74.3,29.7-78c32.3-3.7,61,32.7,56.5,92.1L402.6,207.8z"/>
		<g>
			<path class="st67" d="M561,185.5c0,0,11.1,13.8,20.9,2.4l6.6-0.8c0,0,0.2,3.5,2.2,3.5c2.1-0.2-1-5.8-1-5.8s-14.4,1.3-17.8-0.3
				C568.3,182.9,561,185.5,561,185.5z"/>
			<path class="st68" d="M592.7,178.9l-1.7,1.8c0,0-0.8,3.4,1.1,3.9C594.2,184.8,592.7,178.9,592.7,178.9z"/>
			<path class="st68" d="M571.9,169.4l0.5,1.3c27.8,14.4,33.2-13.3,33.2-13.3C580.5,141.7,571.9,169.4,571.9,169.4z"/>
			<g>
				<path class="st69" d="M572.4,170.7c3.5,1.8,6.6,3,9.3,3.5l-7.1-10.8c-1.9,3.2-2.7,5.9-2.7,5.9L572.4,170.7z"/>
				<path class="st69" d="M596.9,153.4l6.4,10.4c1.8-3.5,2.4-6.4,2.4-6.4C602.5,155.5,599.5,154,596.9,153.4z"/>
				<path class="st69" d="M590.8,174.4c2.7-0.6,5.1-1.9,7.1-3.5l-11.1-17.8c-2.9,0.8-5.1,2.4-7.2,4L590.8,174.4z"/>
			</g>
			<path class="st68" d="M592.9,178.9l-15.4,2.6c-1-1.8-1.3-8.3-2.4-9.8c-8-9.9-21.3-0.8-21.3-0.8l-15.9,11.7c0,0,4.2,6.3-8.2,23.3
				c0,0-2.1-0.3-2.4,1.9h5c0,0,7.2-14.6,11.7-14.6c5.9,0-1.8,12.7-1.8,12.7s-1.9-0.6-2.1,1.9h5.3c0,0,7.1-18.3,11.6-19.4
				c2.9-0.6,4.2-0.2,5.1,0.8c11.9,17.5,22.9-6.4,22.9-6.4l5.6-0.8"/>
			<path class="st70" d="M572,162.2"/>
			<path class="st71" d="M526,157.1c0.2,0,7.1-0.5,10.6,5.6l-7.1,3.9L526,157.1"/>
			<path class="st71" d="M560.6,160.5c-5.3-1.3-11.7,2.9-11.7,2.9l8,9.5L560.6,160.5z"/>
			<path class="st72" d="M526,167.4c-0.5-4.3,0-10.3,0-10.3s4.2,2.9,5.6,6.4L526,167.4z"/>
			<path class="st72" d="M552.8,165.1l4.8,5.1c0,0,3.5-5.1,3-9.8C560.6,160.5,554.9,162.5,552.8,165.1z"/>
			<path class="st71" d="M522.3,174.3c0,0,4-14.8,19.4-13.5s16.8,15.1,16.8,15.1s-2.9,11.2-19.4,10.9S522.3,174.3,522.3,174.3z"/>
			<ellipse transform="matrix(0.2 -0.9798 0.9798 0.2 251.7841 666.3327)" class="st73" cx="533.9" cy="179" rx="2.1" ry="3.9"/>
			<path class="st73" d="M558.2,174.1c-0.5,2.1-1.9,6.3-5.1,9c-1,0.6-2.1,1.3-3.2,1.9c-0.3,0.2-2.6,0.8-2.9,0.8
				c0,0-6.1-11.9-14.4-10.9c-8.2,0.8-8,6.1-8,6.1l0,0c-1.1-2.2-2.2-6.7-2.2-6.7s1.9-7.2,8.3-11.1c0,0,14.6-2.7,27.3,10.3"/>
			
				<ellipse transform="matrix(0.7404 -0.6721 0.6721 0.7404 24.4914 415.2495)" class="st1" cx="549.9" cy="175.9" rx="5.6" ry="4.7"/>
			<path class="st1" d="M522.8,173c1.6,1.3,4.3,1,6.1-0.8c2.1-1.9,2.4-4.8,0.8-6.6c-0.3-0.3-0.8-0.6-1.3-0.8
				C525.2,167.5,523.4,171,522.8,173z"/>
			
				<ellipse transform="matrix(0.5941 -0.8044 0.8044 0.5941 82.4457 511.7858)" class="st74" cx="548.3" cy="174.2" rx="3" ry="2.6"/>
			<path class="st74" d="M524.2,170.4c1,0.8,2.4,0.3,3.4-0.8c0.8-1.1,0.8-2.7-0.3-3.4c-0.2,0-0.2-0.2-0.3-0.2
				c-1.3,1.3-2.2,2.9-3,4.2C524.1,170.2,524.1,170.4,524.2,170.4z"/>
		</g>
		<g>
			<path class="st8" d="M705.2,50.7c0,0-0.5,2.4,1.4,3c1.9,0.5,2.9-1.1,2.9-1.1s-3.9,0-3.2-2.9"/>
			<path class="st8" d="M702.2,51c0,0-1.3,2.2,0.5,3.2c1.8,1.1,3-0.2,3-0.2s-3.7-1.3-2.1-3.7"/>
			<g>
				<polygon class="st17" points="707.1,44.8 718.8,43.8 718,48.9 707.3,47.2 				"/>
				<path class="st17" d="M697.2,48c1.1,3,4,3.7,7.7,3.2c3.7-0.6,4.7-3.2,4.7-3.2c0.5-1.9,0.5-1.8,0.2-2.7c0-0.3,0.2,0.3,0,0
					c-0.3-0.6,3-0.8,1.9-7.1c0,0-3.7,2.4-5.6,2.2c-0.2,0,0.2,0,0,0c-2.1-0.8-3.7-0.5-3.7-0.5l1.3-2.7c0,0-6.9-0.8-6.7,6.3"/>
				<path class="st17" d="M699.3,42c-1.3-0.3-2.7,0.3-5.8-2.9c-1.3,1.8-0.3,5.1,0.5,5.8l0.6-0.5C694.8,44.3,695.3,43.2,699.3,42z"/>
				<path class="st8" d="M696.7,41.9c0,0-2.2,1.1-3.4,3.5c0,0,1.4,2.2,3.9,2.6C699.1,48.3,699.6,40.6,696.7,41.9z"/>
				
					<ellipse transform="matrix(4.049678e-02 -0.9992 0.9992 4.049678e-02 629.4719 741.3112)" class="st8" cx="700.7" cy="42.9" rx="1.1" ry="0.6"/>
				
					<rect x="708.1" y="40.1" transform="matrix(0.8283 -0.5603 0.5603 0.8283 97.7453 404.3314)" class="st75" width="1" height="5.1"/>
				
					<rect x="708.7" y="41.9" transform="matrix(0.8186 -0.5744 0.5744 0.8186 104.5199 415.7979)" class="st75" width="3.5" height="1"/>
				
					<rect x="707.6" y="40.4" transform="matrix(0.8398 -0.5429 0.5429 0.8398 91.5274 391.9242)" class="st75" width="4.5" height="1"/>
				<path class="st76" d="M693.8,45.9c-0.2,0-0.5-0.2-0.5-0.5s0.2-0.5,0.5-0.5l4.7-0.8c0.3,0,0.5,0.2,0.5,0.5s-0.2,0.5-0.5,0.5
					L693.8,45.9L693.8,45.9z"/>
			</g>
		</g>
	</g>
	<g>
		<g>
			<g>
				<polygon class="st1" points="865,125.8 843.8,47.8 844.8,47.7 865.3,124.2 926.8,75.3 927.3,75.9 				"/>
				
					<rect x="831.4" y="89.7" transform="matrix(2.700041e-02 -0.9996 0.9996 2.700041e-02 752.6208 953.5992)" class="st1" width="69.6" height="1"/>
				
					<rect x="851.4" y="96.5" transform="matrix(0.5821 -0.8131 0.8131 0.5821 291.458 761.1061)" class="st1" width="69.6" height="1"/>
				<path class="st77" d="M902.4,13c1,1.1,16.8,24.1,3.5,55.4l21,7.1C927,75.6,943.2,27.8,902.4,13z"/>
				<path class="st77" d="M902.3,13c-0.3-0.2-0.6-0.2-1-0.5c-42.2-14.1-57,35.1-57,35.1l23.3,7.9C867.6,55.5,875.8,21.7,902.3,13z"
					/>
				<path class="st1" d="M902.4,13C902.3,13,902.3,13,902.4,13c-26.6,8.5-34.7,42.5-34.7,42.5l38.3,13
					C919.3,37.1,903.4,14.4,902.4,13z"/>
			</g>
			<polygon class="st78" points="896.5,135.4 904,136.7 901.5,146.3 894.1,143.3 			"/>
			<polygon class="st78" points="894.4,148.7 900.5,150.2 897.6,159.5 891.7,157.4 			"/>
			<path class="st8" d="M878.3,107c0.5,8-8.5,16.5-12.2,19.3c-3.5,2.9-3.9,7.1,0,9s5.8,2.1,11.2-6.3c5.5-8.2,9-18.6,9-18.6
				L878.3,107z"/>
			<g>
				<path class="st8" d="M882.8,116.2l-0.8,2.5c-2.7,1.4-5.1,2.4-7.2,2.7l-0.2-2.2C876.6,119.1,880.6,117.3,882.8,116.2z"/>
				<path class="st13" d="M861.2,117.1c-0.2,1.1,13.6,3.5,13.6,2.4l0.2,2.2c-9.9,0.3-15.4-3.4-15.4-3.4L861.2,117.1z"/>
				<g>
					<path class="st79" d="M852.7,113.8c-1,2.4,0.5,4.8,2.7,5.8c2.4,1,5-0.5,5.8-2.7c1-2.4-0.5-4.8-2.7-5.8
						C856,110.2,853.5,111.4,852.7,113.8z"/>
				</g>
			</g>
			<path class="st43" d="M892.8,122.3c9.1,13-4,40.8-4,40.8l-75.4-22.6c0,0,10.4-44.1,46.2-35.3c0,0,0.2,12,8.5,17.8
				C876.6,128.7,885.1,127.7,892.8,122.3z"/>
			<g>
				<path class="st80" d="M860.2,108.6c-0.2-1.8-0.6-4-0.6-4c-38.3-11.6-49.7,34.8-49.7,34.8l5.5,1.6
					C817.7,133,827.5,102.5,860.2,108.6z"/>
				<path class="st80" d="M892.9,121.9c-1.1,1-2.7,1.6-3.9,2.4c4.5,9,2.2,21-4,37.5l5,1.4C890.2,163.2,902.1,134.8,892.9,121.9z"/>
			</g>
			<polygon class="st1" points="884.3,134.9 894.4,137.8 892.8,143.8 882.7,140.7 			"/>
			<g>
				<path class="st1" d="M881.1,137.4c-0.8,2.6-3.4,4-5.9,3.2c-2.6-0.8-4-3.4-3.2-5.9c0.8-2.6,3.4-4,5.9-3.2
					C880.3,132.2,881.7,134.8,881.1,137.4z"/>
				<polygon class="st80" points="878.7,132.5 873.5,134.9 876.1,136.2 874.3,139.4 879.8,136.1 877.1,134.9 				"/>
			</g>
			<polygon class="st81" points="892.5,139 885.6,137.4 884.6,139.9 891.5,142 			"/>
			<polygon class="st45" points="894.2,160.8 809.2,134.8 807.9,139.4 892.9,164.5 			"/>
			<path class="st8" d="M904,136.7l-2.7,9.5C901.5,146.3,898.2,140.6,904,136.7"/>
			<path class="st8" d="M900.5,150.2l-2.9,9.5C897.6,159.5,894.9,152.3,900.5,150.2"/>
			<g>
				<path class="st8" d="M840.2,143c1.6,7.4-3,14.6-10.4,16c-7.4,1.6-14.8-3-16.2-10.4c-1.6-7.4,3-14.6,10.4-16
					C831.3,130.8,838.6,135.7,840.2,143z"/>
				<path class="st27" d="M831.5,141.2c-0.5-0.5-0.8-1-1.1-1.1l-2.1,3.4l-1-4.3c-1,0.2-1,0.2-1.4,0.2c-0.3,0.2-0.2,0.2-1,0.3l1,4.3
					l-3.7-2.4c-0.5,0.5-0.8,1.1-1,1.8l3.7,2.7l-4.3,1l0.2,1c0.2,0.5,0.2,0.6,0.5,1.3l4.3-1l-2.4,2.9c0.6,0.5,1,0.5,1.6,0.8l2.4-3.7
					l1,4c1-0.2,1-0.2,1-0.2c0.5-0.2,0.6-0.2,1.3-0.5l-1-3.9l2.9,2.2c0.5-0.5,0.8-0.6,1-1l-3.4-1.6l3.9-1c-0.2-1-0.2-1-0.2-1.4
					c-0.2-0.3-0.2-1-0.3-1l-4,1L831.5,141.2z"/>
				<circle class="st82" cx="826.8" cy="145.9" r="1.6"/>
				<path class="st82" d="M825.1,137.7c-4.5,1-7.4,5.5-6.4,9.9c1,4.5,5.5,7.4,9.9,6.4s7.4-5.5,6.4-9.9
					C834.1,139.6,829.6,136.7,825.1,137.7z M828.1,152.1c-3.4,0.8-6.7-1.4-7.5-4.8s1.4-6.7,4.8-7.5s6.7,1.4,7.5,4.8
					C833.7,147.9,831.5,151.3,828.1,152.1z"/>
			</g>
			<g>
				<path class="st8" d="M888.6,156.9c1.6,7.4-3,14.6-10.4,16c-7.4,1.6-14.8-3-16.2-10.4c-1.6-7.4,3-14.6,10.4-16
					C879.8,145.1,887,149.7,888.6,156.9z"/>
				<path class="st27" d="M879.8,155.3c-0.5-0.5-0.8-1-1.1-1.1l-2.1,3.4l-1-4.3c-1,0.2-1,0.2-1.4,0.2c-0.3,0.2-0.2,0.2-1,0.3l1,4.3
					l-3.7-2.4c-0.5,0.5-0.8,1.1-1,1.8l3.7,2.7l-4.3,1l0.2,1c0.2,0.5,0.2,0.6,0.5,1.3l4.3-1l-2.4,2.9c0.6,0.5,1,0.5,1.6,0.8l2.4-3.7
					l1,4c1-0.2,1-0.2,1-0.2c0.5-0.2,0.6-0.2,1.3-0.5l-1-3.9l2.9,2.2c0.5-0.5,0.8-0.6,1-1l-3.4-1.6l3.9-1c-0.2-1-0.2-1-0.2-1.4
					c-0.2-0.3-0.2-1-0.3-1l-4,1L879.8,155.3z"/>
				<circle class="st82" cx="875.1" cy="159.8" r="1.6"/>
				<path class="st82" d="M873.5,151.6c-4.5,1-7.4,5.5-6.4,9.9c1,4.5,5.5,7.4,9.9,6.4c4.5-1,7.4-5.5,6.4-9.9S878,150.7,873.5,151.6z
					 M876.4,166.1c-3.4,0.8-6.7-1.4-7.5-4.8s1.4-6.7,4.8-7.5s6.7,1.4,7.5,4.8C882,161.9,879.8,165.3,876.4,166.1z"/>
			</g>
		</g>
		<g>
			<path class="st13" d="M867.8,95c-4,7.1-1,16.4,6.6,20.5c7.7,4.3,17.2,1.9,21-5.1c3.9-7.1,1-16.4-6.6-20.5
				C881.2,85.5,871.8,87.9,867.8,95z"/>
			<ellipse class="st8" cx="877.2" cy="106.5" rx="0.6" ry="0.6"/>
			<path class="st13" d="M896.2,110.6c0,0,3.7,0.3,2.4,3.4c-1.4,3-4.5,3.9-6.3,0.2C890.4,110.4,896.2,110.6,896.2,110.6z"/>
			<path class="st1" d="M877.9,100.6c0,0-4.2,1.9-7.7-0.2c-1-0.6-1.9-1.8-2.4-2.7c0.3-1,0.8-1.9,1.1-2.9c0.8-1.1,1.6-2.4,2.7-3.4
				c0.2-0.2,0.3-0.2,0.5-0.3C879,91.9,877.9,100.6,877.9,100.6z"/>
			<path class="st12" d="M870.8,94.3c-1,1.4-0.6,3.5,1.1,4.5c1.6,1,3.7,0.6,4.7-1c1-1.4,0.6-3.5-1.1-4.5
				C873.9,92.4,871.8,92.7,870.8,94.3z"/>
			<path class="st1" d="M882.8,103.8c0,0,9.9-6.4,12.7,4.8c0,0-5.9,4.2-9.3,1.9C882.8,108.2,882.8,103.8,882.8,103.8z"/>
			<path class="st12" d="M886.4,104.1c-1,1.4-0.6,3.5,1,4.5s3.7,0.6,4.7-1c1-1.4,0.6-3.5-1-4.5C889.4,102.2,887.3,102.7,886.4,104.1
				z"/>
			<path class="st8" d="M882.5,104.1L882.5,104.1c-0.2-0.2-0.2-0.5,0-0.5c0.2-0.2,5.1-2.9,9.1-1.1c2.1,1,3.4,3,4,6.3
				c0,0,0.2,1,0.6,1.1c0.5,0.2,1,0.2,1.6-0.5c0.2-0.2,0.3,0,0.3,0.2c0.2,0.2,0,0.3-0.2,0.3c-1,0.6-1.6,0.6-2.2,0.5
				c-0.8-0.5-1-1.4-1-1.4c-0.6-2.9-1.8-5-3.7-5.9C887.5,101.4,882.5,104.1,882.5,104.1C882.8,104.3,882.7,104.3,882.5,104.1z"/>
			<path class="st8" d="M877.9,100.8c-0.2,0-0.2-0.2-0.2-0.3c0,0,0.3-1.9-0.2-4c-0.6-2.7-2.6-4.5-5.5-5.5c-0.2,0-0.2-0.2-0.2-0.3
				c0-0.2,0.2-0.2,0.3-0.2c7.4,2.1,5.9,9.9,5.9,9.9C878,100.8,878,100.8,877.9,100.8L877.9,100.8z"/>
			<path class="st8" d="M895.4,107.8c-0.2-0.2-0.2-0.2-0.2-0.3s0.2-0.2,0.3-0.2c1,0.3,1.1-0.6,1.1-0.8c0.2-0.2,0.2-0.2,0.3-0.2
				c0.2,0.2,0.2,0.2,0.2,0.3C897.1,107.3,896.3,108.1,895.4,107.8L895.4,107.8z"/>
			<path class="st8" d="M894.1,105.3c-0.2-0.2-0.2-0.2-0.2-0.3s0.2-0.2,0.3-0.2c0.3,0.2,0.6,0,0.6-0.2c0.5-0.3,0.6-1,0.6-1
				c0-0.2,0.2-0.2,0.3-0.2c0.2,0,0.2,0.2,0.2,0.3c0,0-0.2,1-0.8,1.3C894.9,105.3,894.4,105.4,894.1,105.3L894.1,105.3z"/>
			<g>
				<path class="st23" d="M898.2,100l-13.3-5.1l-5.3-7.9C879.8,87,892.8,84.4,898.2,100z"/>
				<path class="st23" d="M889.7,92.9c0,0,6.9-4.7,12.7,0.8s1.1,11.9,1.1,11.9L899,104c0,0,3.2-4.2,0.6-7.9
					c-3.5-4.7-7.5-2.7-7.5-2.7"/>
			</g>
			<path class="st83" d="M877.9,111.4l-0.6-2.2l-1.8,0.3l-0.6-1.9l-1.9,0.2c0,0-1.8,2.1,1,4C876.6,113.8,877.9,111.4,877.9,111.4z"
				/>
			<path class="st8" d="M876.3,110.9c-1.1-0.6-2.7-1.6-3.4-2.9c-0.2-0.2,0-0.3,0.2-0.3c0.2-0.2,0.3,0,0.3,0.2
				c1.1,2.1,4.7,3.4,4.7,3.4c0.2,0.2,0.2,0.2,0.2,0.3c0,0.2-0.2,0.2-0.3,0.2S877.1,111.4,876.3,110.9z"/>
		</g>
	</g>
</g>
</svg>
